<?xml version="1.0" encoding="iso-8859-1"?>
<!DOCTYPE svg PUBLIC "-//W3C//DTD SVG 20001102//EN" "http://www.w3.org/TR/2000/CR-SVG-20001102/DTD/svg-20001102.dtd">

<svg width="1609.0704" height="1216.59367406427"  viewBox="-160 0 1849.0704 1216.59367406427">
	<g transform="scale(0.9)" xml:space="preserve">
		<g transform="translate(143.928,79.2)">
			<rect width="31.250000" height="438.177165" style="stroke:none;fill:#99330C;stroke-width:3" x="15.625000" y="61.822835" onclick="alert('x:0\ny:32.0197045271586')" onmousemove="window.status='x:0\ty:32.0197045271586'" />
			<rect width="31.250000" height="438.177165" style="stroke:none;fill:#99330C;stroke-width:3" x="78.125000" y="61.822835" onclick="alert('x:1\ny:32.0197045271586')" onmousemove="window.status='x:1\ty:32.0197045271586'" />
			<rect width="31.250000" height="211.562996" style="stroke:none;fill:#99330C;stroke-width:3" x="140.625000" y="288.437004" onclick="alert('x:2\ny:0.49261084641421')" onmousemove="window.status='x:2\ty:0.49261084641421'" />
			<rect width="31.250000" height="271.203152" style="stroke:none;fill:#99330C;stroke-width:3" x="203.125000" y="228.796848" onclick="alert('x:3\ny:1.4778325231824')" onmousemove="window.status='x:3\ty:1.4778325231824'" />
			<rect width="31.250000" height="271.203152" style="stroke:none;fill:#99330C;stroke-width:3" x="265.625000" y="228.796848" onclick="alert('x:4\ny:1.4778325231824')" onmousemove="window.status='x:4\ty:1.4778325231824'" />
			<rect width="31.250000" height="402.997860" style="stroke:none;fill:#99330C;stroke-width:3" x="328.125000" y="97.002140" onclick="alert('x:5\ny:16.7487685064953')" onmousemove="window.status='x:5\ty:16.7487685064953'" />
			<rect width="31.250000" height="346.460651" style="stroke:none;fill:#99330C;stroke-width:3" x="390.625000" y="153.539349" onclick="alert('x:6\ny:5.91133007465424')" onmousemove="window.status='x:6\ty:5.91133007465424'" />
			<rect width="31.250000" height="365.369110" style="stroke:none;fill:#99330C;stroke-width:3" x="453.125000" y="134.630890" onclick="alert('x:7\ny:8.37438416963736')" onmousemove="window.status='x:7\ty:8.37438416963736'" />
			<rect width="31.250000" height="211.562996" style="stroke:none;fill:#99330C;stroke-width:3" x="515.625000" y="288.437004" onclick="alert('x:8\ny:0.49261084641421')" onmousemove="window.status='x:8\ty:0.49261084641421'" />
			<rect width="31.250000" height="211.562996" style="stroke:none;fill:#99330C;stroke-width:3" x="578.125000" y="288.437004" onclick="alert('x:9\ny:0.49261084641421')" onmousemove="window.status='x:9\ty:0.49261084641421'" />
			<rect width="31.250000" height="271.203152" style="stroke:none;fill:#99330C;stroke-width:3" x="640.625000" y="228.796848" onclick="alert('x:10\ny:1.4778325231824')" onmousemove="window.status='x:10\ty:1.4778325231824'" />
			<rect width="31.250000" height="443.729558" style="stroke:none;fill:#99330C;stroke-width:3" x="703.125000" y="56.270442" onclick="alert('x:11\ny:35.467980416594')" onmousemove="window.status='x:11\ty:35.467980416594'" />
			<rect width="31.250000" height="457.623364" style="stroke:none;fill:#99330C;stroke-width:3" x="765.625000" y="42.376636" onclick="alert('x:12\ny:45.812807814185')" onmousemove="window.status='x:12\ty:45.812807814185'" />
			<rect width="31.250000" height="271.203152" style="stroke:none;fill:#99330C;stroke-width:3" x="828.125000" y="228.796848" onclick="alert('x:13\ny:1.4778325231824')" onmousemove="window.status='x:13\ty:1.4778325231824'" />
			<rect width="31.250000" height="286.820494" style="stroke:none;fill:#99330C;stroke-width:3" x="890.625000" y="213.179506" onclick="alert('x:14\ny:1.97044333426059')" onmousemove="window.status='x:14\ty:1.97044333426059'" />
			<rect width="31.250000" height="298.934246" style="stroke:none;fill:#99330C;stroke-width:3" x="953.125000" y="201.065754" onclick="alert('x:15\ny:2.46305420747979')" onmousemove="window.status='x:15\ty:2.46305420747979'" />
			<rect width="31.250000" height="350.805914" style="stroke:none;fill:#99330C;stroke-width:3" x="1015.625000" y="149.194086" onclick="alert('x:16\ny:6.40394082191281')" onmousemove="window.status='x:16\ty:6.40394082191281'" />
			<rect width="31.250000" height="308.831901" style="stroke:none;fill:#99330C;stroke-width:3" x="1078.125000" y="191.168099" onclick="alert('x:17\ny:2.9556650078176')" onmousemove="window.status='x:17\ty:2.9556650078176'" />
			<rect width="31.250000" height="211.562996" style="stroke:none;fill:#99330C;stroke-width:3" x="1140.625000" y="288.437004" onclick="alert('x:18\ny:0.49261084641421')" onmousemove="window.status='x:18\ty:0.49261084641421'" />
			<rect width="31.250000" height="379.365830" style="stroke:none;fill:#99330C;stroke-width:3" x="1203.125000" y="120.634170" onclick="alert('x:19\ny:10.8374383510539')" onmousemove="window.status='x:19\ty:10.8374383510539'" />
			<rect width="31.250000" height="482.477662" style="stroke:none;fill:#99330C;stroke-width:3" x="1265.625000" y="17.522338" onclick="alert('x:20\ny:72.4137936311831')" onmousemove="window.status='x:20\ty:72.4137936311831'" />
			<rect width="31.250000" height="488.418476" style="stroke:none;fill:#99330C;stroke-width:3" x="1328.125000" y="11.581524" onclick="alert('x:21\ny:80.7881773148844')" onmousemove="window.status='x:21\ty:80.7881773148844'" />
			<rect width="31.250000" height="346.460651" style="stroke:none;fill:#99330C;stroke-width:3" x="1390.625000" y="153.539349" onclick="alert('x:22\ny:5.91133007465424')" onmousemove="window.status='x:22\ty:5.91133007465424'" />
			<rect width="31.250000" height="308.831901" style="stroke:none;fill:#99330C;stroke-width:3" x="1453.125000" y="191.168099" onclick="alert('x:23\ny:2.9556650078176')" onmousemove="window.status='x:23\ty:2.9556650078176'" />
			<text x="-93.516" y="517" style="fill:#000000;font-family:Arial;font-size:46">0.01</text>
			<line x1="0" y1="500.000000" x2="8" y2="500.000000" style="stroke-linecap:round;stroke:#000000;fill:none;stroke-width:3" />
			<text x="-67.94" y="392" style="fill:#000000;font-family:Arial;font-size:46">0.1</text>
			<line x1="0" y1="375.000000" x2="8" y2="375.000000" style="stroke-linecap:round;stroke:#000000;fill:none;stroke-width:3" />
			<text x="-29.576" y="267" style="fill:#000000;font-family:Arial;font-size:46">1</text>
			<line x1="0" y1="250.000000" x2="8" y2="250.000000" style="stroke-linecap:round;stroke:#000000;fill:none;stroke-width:3" />
			<text x="-55.152" y="142" style="fill:#000000;font-family:Arial;font-size:46">10</text>
			<line x1="0" y1="125.000000" x2="8" y2="125.000000" style="stroke-linecap:round;stroke:#000000;fill:none;stroke-width:3" />
			<text x="-80.728" y="17" style="fill:#000000;font-family:Arial;font-size:46">100</text>
			<line x1="0" y1="0.000000" x2="8" y2="0.000000" style="stroke-linecap:round;stroke:#000000;fill:none;stroke-width:3" />
			<text x="1504" y="517" style="fill:#99330C;font-family:Arial;font-size:46">0</text>
			<line x1="1500" y1="500.000000" x2="1492" y2="500.000000" style="stroke-linecap:round;stroke:#000000;fill:none;stroke-width:3" />
			<text x="1504" y="267" style="fill:#99330C;font-family:Arial;font-size:46">2</text>
			<line x1="1500" y1="250.000000" x2="1492" y2="250.000000" style="stroke-linecap:round;stroke:#000000;fill:none;stroke-width:3" />
			<text x="1504" y="17" style="fill:#99330C;font-family:Arial;font-size:46">203</text>
			<line x1="1500" y1="0.000000" x2="1492" y2="0.000000" style="stroke-linecap:round;stroke:#000000;fill:none;stroke-width:3" />
			<text x="-81.788" y="23" transform="translate(31.25,504) rotate(-75)" style="fill:#000000;font-family:Arial;font-size:46">cell </text>
			<line x1="0" y1="500" x2="0" y2="492" style="stroke-linecap:round;stroke:#000000;fill:none;stroke-width:3" />
			<line x1="0" y1="0" x2="0" y2="8" style="stroke-linecap:round;stroke:#000000;fill:none;stroke-width:3" />
			<text x="-173.834" y="23" transform="translate(93.75,504) rotate(-75)" style="fill:#000000;font-family:Arial;font-size:46">cell part </text>
			<line x1="62.5" y1="500" x2="62.5" y2="492" style="stroke-linecap:round;stroke:#000000;fill:none;stroke-width:3" />
			<line x1="62.5" y1="0" x2="62.5" y2="8" style="stroke-linecap:round;stroke:#000000;fill:none;stroke-width:3" />
			<text x="-199.456" y="23" transform="translate(156.25,504) rotate(-75)" style="fill:#000000;font-family:Arial;font-size:46">envelope </text>
			<line x1="125" y1="500" x2="125" y2="492" style="stroke-linecap:round;stroke:#000000;fill:none;stroke-width:3" />
			<line x1="125" y1="0" x2="125" y2="8" style="stroke-linecap:round;stroke:#000000;fill:none;stroke-width:3" />
			<text x="-401.35" y="23" transform="translate(218.75,504) rotate(-75)" style="fill:#000000;font-family:Arial;font-size:46">extracellular region </text>
			<line x1="187.5" y1="500" x2="187.5" y2="492" style="stroke-linecap:round;stroke:#000000;fill:none;stroke-width:3" />
			<line x1="187.5" y1="0" x2="187.5" y2="8" style="stroke-linecap:round;stroke:#000000;fill:none;stroke-width:3" />
			<text x="-493.396" y="23" transform="translate(281.25,504) rotate(-75)" style="fill:#000000;font-family:Arial;font-size:46">extracellular region part </text>
			<line x1="250" y1="500" x2="250" y2="492" style="stroke-linecap:round;stroke:#000000;fill:none;stroke-width:3" />
			<line x1="250" y1="0" x2="250" y2="8" style="stroke-linecap:round;stroke:#000000;fill:none;stroke-width:3" />
			<text x="-201.986" y="23" transform="translate(343.75,504) rotate(-75)" style="fill:#000000;font-family:Arial;font-size:46">organelle </text>
			<line x1="312.5" y1="500" x2="312.5" y2="492" style="stroke-linecap:round;stroke:#000000;fill:none;stroke-width:3" />
			<line x1="312.5" y1="0" x2="312.5" y2="8" style="stroke-linecap:round;stroke:#000000;fill:none;stroke-width:3" />
			<text x="-294.032" y="23" transform="translate(406.25,504) rotate(-75)" style="fill:#000000;font-family:Arial;font-size:46">organelle part </text>
			<line x1="375" y1="500" x2="375" y2="492" style="stroke-linecap:round;stroke:#000000;fill:none;stroke-width:3" />
			<line x1="375" y1="0" x2="375" y2="8" style="stroke-linecap:round;stroke:#000000;fill:none;stroke-width:3" />
			<text x="-337.456" y="23" transform="translate(468.75,504) rotate(-75)" style="fill:#000000;font-family:Arial;font-size:46">protein complex </text>
			<line x1="437.5" y1="500" x2="437.5" y2="492" style="stroke-linecap:round;stroke:#000000;fill:none;stroke-width:3" />
			<line x1="437.5" y1="0" x2="437.5" y2="8" style="stroke-linecap:round;stroke:#000000;fill:none;stroke-width:3" />
			<text x="-122.682" y="23" transform="translate(531.25,504) rotate(-75)" style="fill:#000000;font-family:Arial;font-size:46">virion </text>
			<line x1="500" y1="500" x2="500" y2="492" style="stroke-linecap:round;stroke:#000000;fill:none;stroke-width:3" />
			<line x1="500" y1="0" x2="500" y2="8" style="stroke-linecap:round;stroke:#000000;fill:none;stroke-width:3" />
			<text x="-214.728" y="23" transform="translate(593.75,504) rotate(-75)" style="fill:#000000;font-family:Arial;font-size:46">virion part </text>
			<line x1="562.5" y1="500" x2="562.5" y2="492" style="stroke-linecap:round;stroke:#000000;fill:none;stroke-width:3" />
			<line x1="562.5" y1="0" x2="562.5" y2="8" style="stroke-linecap:round;stroke:#000000;fill:none;stroke-width:3" />
			<text x="-235.244" y="23" transform="translate(656.25,504) rotate(-75)" style="fill:#000000;font-family:Arial;font-size:46">antioxidant </text>
			<line x1="625" y1="500" x2="625" y2="492" style="stroke-linecap:round;stroke:#000000;fill:none;stroke-width:3" />
			<line x1="625" y1="0" x2="625" y2="8" style="stroke-linecap:round;stroke:#000000;fill:none;stroke-width:3" />
			<text x="-161.092" y="23" transform="translate(718.75,504) rotate(-75)" style="fill:#000000;font-family:Arial;font-size:46">binding </text>
			<line x1="687.5" y1="500" x2="687.5" y2="492" style="stroke-linecap:round;stroke:#000000;fill:none;stroke-width:3" />
			<line x1="687.5" y1="0" x2="687.5" y2="8" style="stroke-linecap:round;stroke:#000000;fill:none;stroke-width:3" />
			<text x="-178.94" y="23" transform="translate(781.25,504) rotate(-75)" style="fill:#000000;font-family:Arial;font-size:46">catalytic </text>
			<line x1="750" y1="500" x2="750" y2="492" style="stroke-linecap:round;stroke:#000000;fill:none;stroke-width:3" />
			<line x1="750" y1="0" x2="750" y2="8" style="stroke-linecap:round;stroke:#000000;fill:none;stroke-width:3" />
			<text x="-368.138" y="23" transform="translate(843.75,504) rotate(-75)" style="fill:#000000;font-family:Arial;font-size:46">enzyme regulator </text>
			<line x1="812.5" y1="500" x2="812.5" y2="492" style="stroke-linecap:round;stroke:#000000;fill:none;stroke-width:3" />
			<line x1="812.5" y1="0" x2="812.5" y2="8" style="stroke-linecap:round;stroke:#000000;fill:none;stroke-width:3" />
			<text x="-130.364" y="23" transform="translate(906.25,504) rotate(-75)" style="fill:#000000;font-family:Arial;font-size:46">motor </text>
			<line x1="875" y1="500" x2="875" y2="492" style="stroke-linecap:round;stroke:#000000;fill:none;stroke-width:3" />
			<line x1="875" y1="0" x2="875" y2="8" style="stroke-linecap:round;stroke:#000000;fill:none;stroke-width:3" />
			<text x="-363.032" y="23" transform="translate(968.75,504) rotate(-75)" style="fill:#000000;font-family:Arial;font-size:46">signal transducer </text>
			<line x1="937.5" y1="500" x2="937.5" y2="492" style="stroke-linecap:round;stroke:#000000;fill:none;stroke-width:3" />
			<line x1="937.5" y1="0" x2="937.5" y2="8" style="stroke-linecap:round;stroke:#000000;fill:none;stroke-width:3" />
			<text x="-398.774" y="23" transform="translate(1031.25,504) rotate(-75)" style="fill:#000000;font-family:Arial;font-size:46">structural molecule </text>
			<line x1="1000" y1="500" x2="1000" y2="492" style="stroke-linecap:round;stroke:#000000;fill:none;stroke-width:3" />
			<line x1="1000" y1="0" x2="1000" y2="8" style="stroke-linecap:round;stroke:#000000;fill:none;stroke-width:3" />
			<text x="-457.608" y="23" transform="translate(1093.75,504) rotate(-75)" style="fill:#000000;font-family:Arial;font-size:46">transcription regulator </text>
			<line x1="1062.5" y1="500" x2="1062.5" y2="492" style="stroke-linecap:round;stroke:#000000;fill:none;stroke-width:3" />
			<line x1="1062.5" y1="0" x2="1062.5" y2="8" style="stroke-linecap:round;stroke:#000000;fill:none;stroke-width:3" />
			<text x="-419.29" y="23" transform="translate(1156.25,504) rotate(-75)" style="fill:#000000;font-family:Arial;font-size:46">translation regulator </text>
			<line x1="1125" y1="500" x2="1125" y2="492" style="stroke-linecap:round;stroke:#000000;fill:none;stroke-width:3" />
			<line x1="1125" y1="0" x2="1125" y2="8" style="stroke-linecap:round;stroke:#000000;fill:none;stroke-width:3" />
			<text x="-235.198" y="23" transform="translate(1218.75,504) rotate(-75)" style="fill:#000000;font-family:Arial;font-size:46">transporter </text>
			<line x1="1187.5" y1="500" x2="1187.5" y2="492" style="stroke-linecap:round;stroke:#000000;fill:none;stroke-width:3" />
			<line x1="1187.5" y1="0" x2="1187.5" y2="8" style="stroke-linecap:round;stroke:#000000;fill:none;stroke-width:3" />
			<text x="-332.304" y="23" transform="translate(1281.25,504) rotate(-75)" style="fill:#000000;font-family:Arial;font-size:46">cellular process </text>
			<line x1="1250" y1="500" x2="1250" y2="492" style="stroke-linecap:round;stroke:#000000;fill:none;stroke-width:3" />
			<line x1="1250" y1="0" x2="1250" y2="8" style="stroke-linecap:round;stroke:#000000;fill:none;stroke-width:3" />
			<text x="-449.926" y="23" transform="translate(1343.75,504) rotate(-75)" style="fill:#000000;font-family:Arial;font-size:46">physiological process </text>
			<line x1="1312.5" y1="500" x2="1312.5" y2="492" style="stroke-linecap:round;stroke:#000000;fill:none;stroke-width:3" />
			<line x1="1312.5" y1="0" x2="1312.5" y2="8" style="stroke-linecap:round;stroke:#000000;fill:none;stroke-width:3" />
			<text x="-644.276" y="23" transform="translate(1406.25,504) rotate(-75)" style="fill:#000000;font-family:Arial;font-size:46">regulation of biological process </text>
			<line x1="1375" y1="500" x2="1375" y2="492" style="stroke-linecap:round;stroke:#000000;fill:none;stroke-width:3" />
			<line x1="1375" y1="0" x2="1375" y2="8" style="stroke-linecap:round;stroke:#000000;fill:none;stroke-width:3" />
			<text x="-434.608" y="23" transform="translate(1468.75,504) rotate(-75)" style="fill:#000000;font-family:Arial;font-size:46">response to stimulus </text>
			<line x1="1437.5" y1="500" x2="1437.5" y2="492" style="stroke-linecap:round;stroke:#000000;fill:none;stroke-width:3" />
			<line x1="1437.5" y1="0" x2="1437.5" y2="8" style="stroke-linecap:round;stroke:#000000;fill:none;stroke-width:3" />
			<line x1="17.435749" y1="598.210763" x2="-133.370718" y2="1161.028111" style="stroke-linecap:round;stroke:#000000;fill:none;stroke-width:3" />
			<line x1="545.528342" y1="726.620941" x2="429.129282" y2="1161.028111" style="stroke-linecap:round;stroke:#000000;fill:none;stroke-width:3" />
			<line x1="-133.370718" y1="1161.028111" x2="429.129282" y2="1161.028111" style="stroke-linecap:round;stroke:#000000;fill:none;stroke-width:3" />
			<text x="-55.348718" y="1209.028111" style="fill:#000000;font-family:Arial;font-size:46">Cellular Component</text>
			<line x1="602.718410" y1="746.437876" x2="491.629282" y2="1161.028111" style="stroke-linecap:round;stroke:#000000;fill:none;stroke-width:3" />
			<line x1="1165.230316" y1="746.393443" x2="1054.129282" y2="1161.028111" style="stroke-linecap:round;stroke:#000000;fill:none;stroke-width:3" />
			<line x1="491.629282" y1="1161.028111" x2="1054.129282" y2="1161.028111" style="stroke-linecap:round;stroke:#000000;fill:none;stroke-width:3" />
			<text x="578.598282" y="1209.028111" style="fill:#000000;font-family:Arial;font-size:46">Molecular Function</text>
			<line x1="1202.597432" y1="840.190636" x2="1116.629282" y2="1161.028111" style="stroke-linecap:round;stroke:#000000;fill:none;stroke-width:3" />
			<line x1="1363.619206" y1="939.008711" x2="1304.129282" y2="1161.028111" style="stroke-linecap:round;stroke:#000000;fill:none;stroke-width:3" />
			<line x1="1116.629282" y1="1161.028111" x2="1304.129282" y2="1161.028111" style="stroke-linecap:round;stroke:#000000;fill:none;stroke-width:3" />
			<text x="1022.492282" y="1209.028111" style="fill:#000000;font-family:Arial;font-size:46">Biological Process</text>
			<rect width="1500" height="500" style="stroke:black;fill:none;stroke-width:3" x="0" y="0" />
		</g>
		<text x="-180.274" y="0" transform="translate(51.2,329.2) rotate(-90)" style="fill:#000000;font-family:Arial;font-size:46">Percent of genes </text>
		<text x="893.928" y="1336.7707489603" style="fill:#000000;font-family:Arial;font-size:46"></text>
		<text x="750.753" y="56" style="fill:#000000;font-family:Arial;font-size:46">WEGO output</text>
		<text x="-176.41" y="46" transform="translate(1722.656,329.2) rotate(-90)" style="fill:#000000;font-family:Arial;font-size:46">Number of genes</text>
	</g>
</svg>
