<?xml version="1.0" encoding="iso-8859-1"?>
<!DOCTYPE svg PUBLIC "-//W3C//DTD SVG 20001102//EN" "http://www.w3.org/TR/2000/CR-SVG-20001102/DTD/svg-20001102.dtd">

<svg width="1609.0704" height="1167.68672473505"  viewBox="-160 0 1849.0704 1167.68672473505">
	<g transform="scale(0.9)" xml:space="preserve">
		<g transform="translate(143.928,79.2)">
			<rect width="41.666667" height="455.228390" style="fill:#99330C;stroke:none;stroke-width:3" x="20.833333" y="44.771610" onclick="alert('x:0\ny:43.8356166200951')" onmousemove="window.status='x:0\ty:43.8356166200951'" />
			<rect width="41.666667" height="455.228390" style="fill:#99330C;stroke:none;stroke-width:3" x="104.166667" y="44.771610" onclick="alert('x:1\ny:43.8356166200951')" onmousemove="window.status='x:1\ty:43.8356166200951'" />
			<rect width="41.666667" height="447.979396" style="fill:#99330C;stroke:none;stroke-width:3" x="187.500000" y="52.020604" onclick="alert('x:2\ny:38.3561642756575')" onmousemove="window.status='x:2\ty:38.3561642756575'" />
			<rect width="41.666667" height="441.827144" style="fill:#99330C;stroke:none;stroke-width:3" x="270.833333" y="58.172856" onclick="alert('x:3\ny:34.2465754566817')" onmousemove="window.status='x:3\ty:34.2465754566817'" />
			<rect width="41.666667" height="386.364956" style="fill:#99330C;stroke:none;stroke-width:3" x="354.166667" y="113.635044" onclick="alert('x:4\ny:12.3287671426236')" onmousemove="window.status='x:4\ty:12.3287671426236'" />
			<rect width="41.666667" height="453.504854" style="fill:#99330C;stroke:none;stroke-width:3" x="437.500000" y="46.495146" onclick="alert('x:5\ny:42.4657530615168')" onmousemove="window.status='x:5\ty:42.4657530615168'" />
			<rect width="41.666667" height="463.109857" style="fill:#99330C;stroke:none;stroke-width:3" x="520.833333" y="36.890143" onclick="alert('x:6\ny:50.6849310462631')" onmousemove="window.status='x:6\ty:50.6849310462631'" />
			<rect width="41.666667" height="441.827144" style="fill:#99330C;stroke:none;stroke-width:3" x="604.166667" y="58.172856" onclick="alert('x:7\ny:34.2465754566817')" onmousemove="window.status='x:7\ty:34.2465754566817'" />
			<rect width="41.666667" height="304.713392" style="fill:#99330C;stroke:none;stroke-width:3" x="687.500000" y="195.286608" onclick="alert('x:8\ny:2.73972605551072')" onmousemove="window.status='x:8\ty:2.73972605551072'" />
			<rect width="41.666667" height="267.084643" style="fill:#99330C;stroke:none;stroke-width:3" x="770.833333" y="232.915357" onclick="alert('x:9\ny:1.36986301407858')" onmousemove="window.status='x:9\ty:1.36986301407858'" />
			<rect width="41.666667" height="326.724799" style="fill:#99330C;stroke:none;stroke-width:3" x="854.166667" y="173.275201" onclick="alert('x:10\ny:4.10958899757508')" onmousemove="window.status='x:10\ty:4.10958899757508'" />
			<rect width="41.666667" height="354.455893" style="fill:#99330C;stroke:none;stroke-width:3" x="937.500000" y="145.544107" onclick="alert('x:11\ny:6.84931500200896')" onmousemove="window.status='x:11\ty:6.84931500200896'" />
			<rect width="41.666667" height="491.133604" style="fill:#99330C;stroke:none;stroke-width:3" x="1020.833333" y="8.866396" onclick="alert('x:12\ny:84.9315069709941')" onmousemove="window.status='x:12\ty:84.9315069709941'" />
			<rect width="41.666667" height="304.713392" style="fill:#99330C;stroke:none;stroke-width:3" x="1104.166667" y="195.286608" onclick="alert('x:13\ny:2.73972605551072')" onmousemove="window.status='x:13\ty:2.73972605551072'" />
			<rect width="41.666667" height="304.713392" style="fill:#99330C;stroke:none;stroke-width:3" x="1187.500000" y="195.286608" onclick="alert('x:14\ny:2.73972605551072')" onmousemove="window.status='x:14\ty:2.73972605551072'" />
			<rect width="41.666667" height="304.713392" style="fill:#99330C;stroke:none;stroke-width:3" x="1270.833333" y="195.286608" onclick="alert('x:15\ny:2.73972605551072')" onmousemove="window.status='x:15\ty:2.73972605551072'" />
			<rect width="41.666667" height="490.250871" style="fill:#99330C;stroke:none;stroke-width:3" x="1354.166667" y="9.749129" onclick="alert('x:16\ny:83.5616428946824')" onmousemove="window.status='x:16\ty:83.5616428946824'" />
			<rect width="41.666667" height="372.721898" style="fill:#99330C;stroke:none;stroke-width:3" x="1437.500000" y="127.278102" onclick="alert('x:17\ny:9.58904109823524')" onmousemove="window.status='x:17\ty:9.58904109823524'" />
			<text x="-93.516" y="517" style="fill:#000000;font-family:Arial;font-size:46">0.01</text>
			<line x1="0" y1="500.000000" x2="8" y2="500.000000" style="fill:none;stroke:#000000;stroke-width:3;stroke-linecap:round" />
			<text x="-67.94" y="392" style="fill:#000000;font-family:Arial;font-size:46">0.1</text>
			<line x1="0" y1="375.000000" x2="8" y2="375.000000" style="fill:none;stroke:#000000;stroke-width:3;stroke-linecap:round" />
			<text x="-29.576" y="267" style="fill:#000000;font-family:Arial;font-size:46">1</text>
			<line x1="0" y1="250.000000" x2="8" y2="250.000000" style="fill:none;stroke:#000000;stroke-width:3;stroke-linecap:round" />
			<text x="-55.152" y="142" style="fill:#000000;font-family:Arial;font-size:46">10</text>
			<line x1="0" y1="125.000000" x2="8" y2="125.000000" style="fill:none;stroke:#000000;stroke-width:3;stroke-linecap:round" />
			<text x="-80.728" y="17" style="fill:#000000;font-family:Arial;font-size:46">100</text>
			<line x1="0" y1="0.000000" x2="8" y2="0.000000" style="fill:none;stroke:#000000;stroke-width:3;stroke-linecap:round" />
			<text x="1504" y="517" style="fill:#99330C;font-family:Arial;font-size:46">0</text>
			<line x1="1500" y1="500.000000" x2="1492" y2="500.000000" style="fill:none;stroke:#000000;stroke-width:3;stroke-linecap:round" />
			<text x="1504" y="267" style="fill:#99330C;font-family:Arial;font-size:46">0</text>
			<line x1="1500" y1="250.000000" x2="1492" y2="250.000000" style="fill:none;stroke:#000000;stroke-width:3;stroke-linecap:round" />
			<text x="1504" y="17" style="fill:#99330C;font-family:Arial;font-size:46">73</text>
			<line x1="1500" y1="0.000000" x2="1492" y2="0.000000" style="fill:none;stroke:#000000;stroke-width:3;stroke-linecap:round" />
			<text x="-81.788" y="23" transform="translate(41.6666666666667,504) rotate(-75)" style="fill:#000000;font-family:Arial;font-size:46">cell </text>
			<line x1="0" y1="500" x2="0" y2="492" style="fill:none;stroke:#000000;stroke-width:3;stroke-linecap:round" />
			<line x1="0" y1="0" x2="0" y2="8" style="fill:none;stroke:#000000;stroke-width:3;stroke-linecap:round" />
			<text x="-173.834" y="23" transform="translate(124.999999996667,504) rotate(-75)" style="fill:#000000;font-family:Arial;font-size:46">cell part </text>
			<line x1="83.33333333" y1="500" x2="83.33333333" y2="492" style="fill:none;stroke:#000000;stroke-width:3;stroke-linecap:round" />
			<line x1="83.33333333" y1="0" x2="83.33333333" y2="8" style="fill:none;stroke:#000000;stroke-width:3;stroke-linecap:round" />
			<text x="-523.986" y="23" transform="translate(208.333333336667,504) rotate(-75)" style="fill:#000000;font-family:Arial;font-size:46">macromolecular complex </text>
			<line x1="166.66666667" y1="500" x2="166.66666667" y2="492" style="fill:none;stroke:#000000;stroke-width:3;stroke-linecap:round" />
			<line x1="166.66666667" y1="0" x2="166.66666667" y2="8" style="fill:none;stroke:#000000;stroke-width:3;stroke-linecap:round" />
			<text x="-201.986" y="23" transform="translate(291.666666666667,504) rotate(-75)" style="fill:#000000;font-family:Arial;font-size:46">organelle </text>
			<line x1="250" y1="500" x2="250" y2="492" style="fill:none;stroke:#000000;stroke-width:3;stroke-linecap:round" />
			<line x1="250" y1="0" x2="250" y2="8" style="fill:none;stroke:#000000;stroke-width:3;stroke-linecap:round" />
			<text x="-294.032" y="23" transform="translate(374.999999996667,504) rotate(-75)" style="fill:#000000;font-family:Arial;font-size:46">organelle part </text>
			<line x1="333.33333333" y1="500" x2="333.33333333" y2="492" style="fill:none;stroke:#000000;stroke-width:3;stroke-linecap:round" />
			<line x1="333.33333333" y1="0" x2="333.33333333" y2="8" style="fill:none;stroke:#000000;stroke-width:3;stroke-linecap:round" />
			<text x="-161.092" y="23" transform="translate(458.333333336667,504) rotate(-75)" style="fill:#000000;font-family:Arial;font-size:46">binding </text>
			<line x1="416.66666667" y1="500" x2="416.66666667" y2="492" style="fill:none;stroke:#000000;stroke-width:3;stroke-linecap:round" />
			<line x1="416.66666667" y1="0" x2="416.66666667" y2="8" style="fill:none;stroke:#000000;stroke-width:3;stroke-linecap:round" />
			<text x="-178.94" y="23" transform="translate(541.666666666667,504) rotate(-75)" style="fill:#000000;font-family:Arial;font-size:46">catalytic </text>
			<line x1="500" y1="500" x2="500" y2="492" style="fill:none;stroke:#000000;stroke-width:3;stroke-linecap:round" />
			<line x1="500" y1="0" x2="500" y2="8" style="fill:none;stroke:#000000;stroke-width:3;stroke-linecap:round" />
			<text x="-398.774" y="23" transform="translate(624.999999996667,504) rotate(-75)" style="fill:#000000;font-family:Arial;font-size:46">structural molecule </text>
			<line x1="583.33333333" y1="500" x2="583.33333333" y2="492" style="fill:none;stroke:#000000;stroke-width:3;stroke-linecap:round" />
			<line x1="583.33333333" y1="0" x2="583.33333333" y2="8" style="fill:none;stroke:#000000;stroke-width:3;stroke-linecap:round" />
			<text x="-457.608" y="23" transform="translate(708.333333336667,504) rotate(-75)" style="fill:#000000;font-family:Arial;font-size:46">transcription regulator </text>
			<line x1="666.66666667" y1="500" x2="666.66666667" y2="492" style="fill:none;stroke:#000000;stroke-width:3;stroke-linecap:round" />
			<line x1="666.66666667" y1="0" x2="666.66666667" y2="8" style="fill:none;stroke:#000000;stroke-width:3;stroke-linecap:round" />
			<text x="-419.29" y="23" transform="translate(791.666666666667,504) rotate(-75)" style="fill:#000000;font-family:Arial;font-size:46">translation regulator </text>
			<line x1="750" y1="500" x2="750" y2="492" style="fill:none;stroke:#000000;stroke-width:3;stroke-linecap:round" />
			<line x1="750" y1="0" x2="750" y2="8" style="fill:none;stroke:#000000;stroke-width:3;stroke-linecap:round" />
			<text x="-235.198" y="23" transform="translate(874.999999996667,504) rotate(-75)" style="fill:#000000;font-family:Arial;font-size:46">transporter </text>
			<line x1="833.33333333" y1="500" x2="833.33333333" y2="492" style="fill:none;stroke:#000000;stroke-width:3;stroke-linecap:round" />
			<line x1="833.33333333" y1="0" x2="833.33333333" y2="8" style="fill:none;stroke:#000000;stroke-width:3;stroke-linecap:round" />
			<text x="-419.29" y="23" transform="translate(958.333333336667,504) rotate(-75)" style="fill:#000000;font-family:Arial;font-size:46">biological regulation </text>
			<line x1="916.66666667" y1="500" x2="916.66666667" y2="492" style="fill:none;stroke:#000000;stroke-width:3;stroke-linecap:round" />
			<line x1="916.66666667" y1="0" x2="916.66666667" y2="8" style="fill:none;stroke:#000000;stroke-width:3;stroke-linecap:round" />
			<text x="-332.304" y="23" transform="translate(1041.66666666667,504) rotate(-75)" style="fill:#000000;font-family:Arial;font-size:46">cellular process </text>
			<line x1="1000" y1="500" x2="1000" y2="492" style="fill:none;stroke:#000000;stroke-width:3;stroke-linecap:round" />
			<line x1="1000" y1="0" x2="1000" y2="8" style="fill:none;stroke:#000000;stroke-width:3;stroke-linecap:round" />
			<text x="-485.76" y="23" transform="translate(1124.99999999667,504) rotate(-75)" style="fill:#000000;font-family:Arial;font-size:46">developmental process </text>
			<line x1="1083.33333333" y1="500" x2="1083.33333333" y2="492" style="fill:none;stroke:#000000;stroke-width:3;stroke-linecap:round" />
			<line x1="1083.33333333" y1="0" x2="1083.33333333" y2="8" style="fill:none;stroke:#000000;stroke-width:3;stroke-linecap:round" />
			<text x="-588.018" y="23" transform="translate(1208.33333333667,504) rotate(-75)" style="fill:#000000;font-family:Arial;font-size:46">establishment of localization </text>
			<line x1="1166.66666667" y1="500" x2="1166.66666667" y2="492" style="fill:none;stroke:#000000;stroke-width:3;stroke-linecap:round" />
			<line x1="1166.66666667" y1="0" x2="1166.66666667" y2="8" style="fill:none;stroke:#000000;stroke-width:3;stroke-linecap:round" />
			<text x="-240.304" y="23" transform="translate(1291.66666666667,504) rotate(-75)" style="fill:#000000;font-family:Arial;font-size:46">localization </text>
			<line x1="1250" y1="500" x2="1250" y2="492" style="fill:none;stroke:#000000;stroke-width:3;stroke-linecap:round" />
			<line x1="1250" y1="0" x2="1250" y2="8" style="fill:none;stroke:#000000;stroke-width:3;stroke-linecap:round" />
			<text x="-383.456" y="23" transform="translate(1374.99999999667,504) rotate(-75)" style="fill:#000000;font-family:Arial;font-size:46">metabolic process </text>
			<line x1="1333.33333333" y1="500" x2="1333.33333333" y2="492" style="fill:none;stroke:#000000;stroke-width:3;stroke-linecap:round" />
			<line x1="1333.33333333" y1="0" x2="1333.33333333" y2="8" style="fill:none;stroke:#000000;stroke-width:3;stroke-linecap:round" />
			<text x="-434.608" y="23" transform="translate(1458.33333333667,504) rotate(-75)" style="fill:#000000;font-family:Arial;font-size:46">response to stimulus </text>
			<line x1="1416.66666667" y1="500" x2="1416.66666667" y2="492" style="fill:none;stroke:#000000;stroke-width:3;stroke-linecap:round" />
			<line x1="1416.66666667" y1="0" x2="1416.66666667" y2="8" style="fill:none;stroke:#000000;stroke-width:3;stroke-linecap:round" />
			<line x1="27.852416" y1="598.210763" x2="-108.393409" y2="1106.687057" style="fill:none;stroke:#000000;stroke-width:3;stroke-linecap:round" />
			<line x1="306.252955" y1="803.222723" x2="224.939925" y2="1106.687057" style="fill:none;stroke:#000000;stroke-width:3;stroke-linecap:round" />
			<line x1="-108.393409" y1="1106.687057" x2="224.939925" y2="1106.687057" style="fill:none;stroke:#000000;stroke-width:3;stroke-linecap:round" />
			<text x="-144.954742" y="1154.687057" style="fill:#000000;font-family:Arial;font-size:46">Cellular Component</text>
			<line x1="423.993695" y1="674.812544" x2="308.273258" y2="1106.687057" style="fill:none;stroke:#000000;stroke-width:3;stroke-linecap:round" />
			<line x1="821.480316" y1="746.393443" x2="724.939925" y2="1106.687057" style="fill:none;stroke:#000000;stroke-width:3;stroke-linecap:round" />
			<line x1="308.273258" y1="1106.687057" x2="724.939925" y2="1106.687057" style="fill:none;stroke:#000000;stroke-width:3;stroke-linecap:round" />
			<text x="322.325591" y="1154.687057" style="fill:#000000;font-family:Arial;font-size:46">Molecular Function</text>
			<line x1="857.167130" y1="924.212659" x2="808.273258" y2="1106.687057" style="fill:none;stroke:#000000;stroke-width:3;stroke-linecap:round" />
			<line x1="1353.202539" y1="939.008711" x2="1308.273258" y2="1106.687057" style="fill:none;stroke:#000000;stroke-width:3;stroke-linecap:round" />
			<line x1="808.273258" y1="1106.687057" x2="1308.273258" y2="1106.687057" style="fill:none;stroke:#000000;stroke-width:3;stroke-linecap:round" />
			<text x="870.386258" y="1154.687057" style="fill:#000000;font-family:Arial;font-size:46">Biological Process</text>
			<rect width="1500" height="500" style="fill:none;stroke:black;stroke-width:3" x="0" y="0" />
		</g>
		<text x="-180.274" y="0" transform="translate(51.2,329.2) rotate(-90)" style="fill:#000000;font-family:Arial;font-size:46">Percent of genes </text>
		<text x="893.928" y="1282.42969415005" style="fill:#000000;font-family:Arial;font-size:46"></text>
		<text x="750.753" y="56" style="fill:#000000;font-family:Arial;font-size:46">WEGO output</text>
		<text x="-176.41" y="46" transform="translate(1722.656,329.2) rotate(-90)" style="fill:#000000;font-family:Arial;font-size:46">Number of genes</text>
	</g>
</svg>
