<?xml version="1.0" encoding="iso-8859-1"?>
<!DOCTYPE svg PUBLIC "-//W3C//DTD SVG 20001102//EN" "http://www.w3.org/TR/2000/CR-SVG-20001102/DTD/svg-20001102.dtd">

<svg width="1457.2368" height="1044.90747989013" viewBox="0 0 1457.2368 1044.90747989013">

	<g transform="scale(0.9)" xml:space="preserve">
		<g transform="translate(109.152,79.2)">
			<rect width="28.125000" height="108.000000" style="fill:#9B97C8;stroke:none;stroke-width:3" x="18.750000" y="342.000000" onclick="alert('x:0\ny:6')" onmousemove="window.status='x:0\ty:6'" />
			<rect width="28.125000" height="108.000000" style="fill:#9B97C8;stroke:none;stroke-width:3" x="112.500000" y="342.000000" onclick="alert('x:1\ny:6')" onmousemove="window.status='x:1\ty:6'" />
			<rect width="28.125000" height="36.000000" style="fill:#9B97C8;stroke:none;stroke-width:3" x="206.250000" y="414.000000" onclick="alert('x:2\ny:2')" onmousemove="window.status='x:2\ty:2'" />
			<rect width="28.125000" height="90.000000" style="fill:#9B97C8;stroke:none;stroke-width:3" x="300.000000" y="360.000000" onclick="alert('x:3\ny:5')" onmousemove="window.status='x:3\ty:5'" />
			<rect width="28.125000" height="36.000000" style="fill:#9B97C8;stroke:none;stroke-width:3" x="393.750000" y="414.000000" onclick="alert('x:4\ny:2')" onmousemove="window.status='x:4\ty:2'" />
			<rect width="28.125000" height="90.000000" style="fill:#9B97C8;stroke:none;stroke-width:3" x="487.500000" y="360.000000" onclick="alert('x:5\ny:5')" onmousemove="window.status='x:5\ty:5'" />
			<rect width="28.125000" height="0.000000" style="fill:#9B97C8;stroke:none;stroke-width:3" x="581.250000" y="450.000000" onclick="alert('x:6\ny:0')" onmousemove="window.status='x:6\ty:0'" />
			<rect width="28.125000" height="72.000000" style="fill:#9B97C8;stroke:none;stroke-width:3" x="675.000000" y="378.000000" onclick="alert('x:7\ny:4')" onmousemove="window.status='x:7\ty:4'" />
			<rect width="28.125000" height="18.000000" style="fill:#9B97C8;stroke:none;stroke-width:3" x="768.750000" y="432.000000" onclick="alert('x:8\ny:1')" onmousemove="window.status='x:8\ty:1'" />
			<rect width="28.125000" height="0.000000" style="fill:#9B97C8;stroke:none;stroke-width:3" x="862.500000" y="450.000000" onclick="alert('x:9\ny:0')" onmousemove="window.status='x:9\ty:0'" />
			<rect width="28.125000" height="0.000000" style="fill:#9B97C8;stroke:none;stroke-width:3" x="956.250000" y="450.000000" onclick="alert('x:10\ny:0')" onmousemove="window.status='x:10\ty:0'" />
			<rect width="28.125000" height="54.000000" style="fill:#9B97C8;stroke:none;stroke-width:3" x="1050.000000" y="396.000000" onclick="alert('x:11\ny:3')" onmousemove="window.status='x:11\ty:3'" />
			<rect width="28.125000" height="0.000000" style="fill:#9B97C8;stroke:none;stroke-width:3" x="1143.750000" y="450.000000" onclick="alert('x:12\ny:0')" onmousemove="window.status='x:12\ty:0'" />
			<rect width="28.125000" height="90.000000" style="fill:#9B97C8;stroke:none;stroke-width:3" x="1237.500000" y="360.000000" onclick="alert('x:13\ny:5')" onmousemove="window.status='x:13\ty:5'" />
			<rect width="28.125000" height="90.000000" style="fill:#9B97C8;stroke:none;stroke-width:3" x="1331.250000" y="360.000000" onclick="alert('x:14\ny:5')" onmousemove="window.status='x:14\ty:5'" />
			<rect width="28.125000" height="0.000000" style="fill:#9B97C8;stroke:none;stroke-width:3" x="1425.000000" y="450.000000" onclick="alert('x:15\ny:0')" onmousemove="window.status='x:15\ty:0'" />
			<rect width="28.125000" height="162.000000" style="fill:#99330C;stroke:none;stroke-width:3" x="46.875000" y="288.000000" onclick="alert('x:0\ny:9')" onmousemove="window.status='x:0\ty:9'" />
			<rect width="28.125000" height="162.000000" style="fill:#99330C;stroke:none;stroke-width:3" x="140.625000" y="288.000000" onclick="alert('x:1\ny:9')" onmousemove="window.status='x:1\ty:9'" />
			<rect width="28.125000" height="0.000000" style="fill:#99330C;stroke:none;stroke-width:3" x="234.375000" y="450.000000" onclick="alert('x:2\ny:0')" onmousemove="window.status='x:2\ty:0'" />
			<rect width="28.125000" height="36.000000" style="fill:#99330C;stroke:none;stroke-width:3" x="328.125000" y="414.000000" onclick="alert('x:3\ny:2')" onmousemove="window.status='x:3\ty:2'" />
			<rect width="28.125000" height="18.000000" style="fill:#99330C;stroke:none;stroke-width:3" x="421.875000" y="432.000000" onclick="alert('x:4\ny:1')" onmousemove="window.status='x:4\ty:1'" />
			<rect width="28.125000" height="36.000000" style="fill:#99330C;stroke:none;stroke-width:3" x="515.625000" y="414.000000" onclick="alert('x:5\ny:2')" onmousemove="window.status='x:5\ty:2'" />
			<rect width="28.125000" height="54.000000" style="fill:#99330C;stroke:none;stroke-width:3" x="609.375000" y="396.000000" onclick="alert('x:6\ny:3')" onmousemove="window.status='x:6\ty:3'" />
			<rect width="28.125000" height="90.000000" style="fill:#99330C;stroke:none;stroke-width:3" x="703.125000" y="360.000000" onclick="alert('x:7\ny:5')" onmousemove="window.status='x:7\ty:5'" />
			<rect width="28.125000" height="270.000000" style="fill:#99330C;stroke:none;stroke-width:3" x="796.875000" y="180.000000" onclick="alert('x:8\ny:15')" onmousemove="window.status='x:8\ty:15'" />
			<rect width="28.125000" height="18.000000" style="fill:#99330C;stroke:none;stroke-width:3" x="890.625000" y="432.000000" onclick="alert('x:9\ny:1')" onmousemove="window.status='x:9\ty:1'" />
			<rect width="28.125000" height="0.000000" style="fill:#99330C;stroke:none;stroke-width:3" x="984.375000" y="450.000000" onclick="alert('x:10\ny:0')" onmousemove="window.status='x:10\ty:0'" />
			<rect width="28.125000" height="18.000000" style="fill:#99330C;stroke:none;stroke-width:3" x="1078.125000" y="432.000000" onclick="alert('x:11\ny:1')" onmousemove="window.status='x:11\ty:1'" />
			<rect width="28.125000" height="36.000000" style="fill:#99330C;stroke:none;stroke-width:3" x="1171.875000" y="414.000000" onclick="alert('x:12\ny:2')" onmousemove="window.status='x:12\ty:2'" />
			<rect width="28.125000" height="306.000000" style="fill:#99330C;stroke:none;stroke-width:3" x="1265.625000" y="144.000000" onclick="alert('x:13\ny:17')" onmousemove="window.status='x:13\ty:17'" />
			<rect width="28.125000" height="360.000000" style="fill:#99330C;stroke:none;stroke-width:3" x="1359.375000" y="90.000000" onclick="alert('x:14\ny:20')" onmousemove="window.status='x:14\ty:20'" />
			<rect width="28.125000" height="18.000000" style="fill:#99330C;stroke:none;stroke-width:3" x="1453.125000" y="432.000000" onclick="alert('x:15\ny:1')" onmousemove="window.status='x:15\ty:1'" />
			<g transform="translate(1001.4845,10) scale(0.75)">
				<text x="68.928" y="45.08" style="fill:#000000;font-family:ArialNarrow-Bold;font-size:46">Upregulated</text>
				<rect width="33.12" height="33.12" style="fill:#9B97C8;stroke:none;stroke-width:3" x="15.66" y="11.52" />
				<text x="362.408" y="45.08" style="fill:#000000;font-family:ArialNarrow-Bold;font-size:46">Downregulated</text>
				<rect width="33.12" height="33.12" style="fill:#99330C;stroke:none;stroke-width:3" x="309.14" y="11.52" />
			</g>
			<text x="-24.976" y="467" style="fill:#000000;font-family:ArialNarrow-Bold;font-size:46">0</text>
			<line x1="0" y1="450.000000" x2="8" y2="450.000000" style="fill:none;stroke:#000000;stroke-width:3;stroke-linecap:round" />
			<line x1="1500" y1="450.000000" x2="1492" y2="450.000000" style="fill:none;stroke:#000000;stroke-width:3;stroke-linecap:round" />
			<text x="-24.976" y="377" style="fill:#000000;font-family:ArialNarrow-Bold;font-size:46">5</text>
			<line x1="0" y1="360.000000" x2="8" y2="360.000000" style="fill:none;stroke:#000000;stroke-width:3;stroke-linecap:round" />
			<line x1="1500" y1="360.000000" x2="1492" y2="360.000000" style="fill:none;stroke:#000000;stroke-width:3;stroke-linecap:round" />
			<text x="-45.952" y="287" style="fill:#000000;font-family:ArialNarrow-Bold;font-size:46">10</text>
			<line x1="0" y1="270.000000" x2="8" y2="270.000000" style="fill:none;stroke:#000000;stroke-width:3;stroke-linecap:round" />
			<line x1="1500" y1="270.000000" x2="1492" y2="270.000000" style="fill:none;stroke:#000000;stroke-width:3;stroke-linecap:round" />
			<text x="-45.952" y="197" style="fill:#000000;font-family:ArialNarrow-Bold;font-size:46">15</text>
			<line x1="0" y1="180.000000" x2="8" y2="180.000000" style="fill:none;stroke:#000000;stroke-width:3;stroke-linecap:round" />
			<line x1="1500" y1="180.000000" x2="1492" y2="180.000000" style="fill:none;stroke:#000000;stroke-width:3;stroke-linecap:round" />
			<text x="-45.952" y="107" style="fill:#000000;font-family:ArialNarrow-Bold;font-size:46">20</text>
			<line x1="0" y1="90.000000" x2="8" y2="90.000000" style="fill:none;stroke:#000000;stroke-width:3;stroke-linecap:round" />
			<line x1="1500" y1="90.000000" x2="1492" y2="90.000000" style="fill:none;stroke:#000000;stroke-width:3;stroke-linecap:round" />
			<text x="-45.952" y="17" style="fill:#000000;font-family:ArialNarrow-Bold;font-size:46">25</text>
			<line x1="0" y1="0.000000" x2="8" y2="0.000000" style="fill:none;stroke:#000000;stroke-width:3;stroke-linecap:round" />
			<line x1="1500" y1="0.000000" x2="1492" y2="0.000000" style="fill:none;stroke:#000000;stroke-width:3;stroke-linecap:round" />
			<text x="-79.672" y="23" transform="translate(46.875,454) rotate(-75)" style="fill:#000000;font-family:ArialNarrow-Bold;font-size:46">Cell </text>
			<line x1="0" y1="450" x2="0" y2="442" style="fill:none;stroke:#000000;stroke-width:3;stroke-linecap:round" />
			<line x1="0" y1="0" x2="0" y2="8" style="fill:none;stroke:#000000;stroke-width:3;stroke-linecap:round" />
			<text x="-161.414" y="23" transform="translate(140.625,454) rotate(-75)" style="fill:#000000;font-family:ArialNarrow-Bold;font-size:46">Cell part </text>
			<line x1="93.75" y1="450" x2="93.75" y2="442" style="fill:none;stroke:#000000;stroke-width:3;stroke-linecap:round" />
			<line x1="93.75" y1="0" x2="93.75" y2="8" style="fill:none;stroke:#000000;stroke-width:3;stroke-linecap:round" />
			<text x="-362.71" y="23" transform="translate(234.375,454) rotate(-75)" style="fill:#000000;font-family:ArialNarrow-Bold;font-size:46">Extracellular region </text>
			<line x1="187.5" y1="450" x2="187.5" y2="442" style="fill:none;stroke:#000000;stroke-width:3;stroke-linecap:round" />
			<line x1="187.5" y1="0" x2="187.5" y2="8" style="fill:none;stroke:#000000;stroke-width:3;stroke-linecap:round" />
			<text x="-184.506" y="23" transform="translate(328.125,454) rotate(-75)" style="fill:#000000;font-family:ArialNarrow-Bold;font-size:46">Organelle </text>
			<line x1="281.25" y1="450" x2="281.25" y2="442" style="fill:none;stroke:#000000;stroke-width:3;stroke-linecap:round" />
			<line x1="281.25" y1="0" x2="281.25" y2="8" style="fill:none;stroke:#000000;stroke-width:3;stroke-linecap:round" />
			<text x="-266.248" y="23" transform="translate(421.875,454) rotate(-75)" style="fill:#000000;font-family:ArialNarrow-Bold;font-size:46">Organelle part </text>
			<line x1="375" y1="450" x2="375" y2="442" style="fill:none;stroke:#000000;stroke-width:3;stroke-linecap:round" />
			<line x1="375" y1="0" x2="375" y2="8" style="fill:none;stroke:#000000;stroke-width:3;stroke-linecap:round" />
			<text x="-303.968" y="23" transform="translate(515.625,454) rotate(-75)" style="fill:#000000;font-family:ArialNarrow-Bold;font-size:46">Protein complex </text>
			<line x1="468.75" y1="450" x2="468.75" y2="442" style="fill:none;stroke:#000000;stroke-width:3;stroke-linecap:round" />
			<line x1="468.75" y1="0" x2="468.75" y2="8" style="fill:none;stroke:#000000;stroke-width:3;stroke-linecap:round" />
			<text x="-358.432" y="23" transform="translate(609.375,454) rotate(-75)" style="fill:#000000;font-family:ArialNarrow-Bold;font-size:46">Antioxidant activity </text>
			<line x1="562.5" y1="450" x2="562.5" y2="442" style="fill:none;stroke:#000000;stroke-width:3;stroke-linecap:round" />
			<line x1="562.5" y1="0" x2="562.5" y2="8" style="fill:none;stroke:#000000;stroke-width:3;stroke-linecap:round" />
			<text x="-150.88" y="23" transform="translate(703.125,454) rotate(-75)" style="fill:#000000;font-family:ArialNarrow-Bold;font-size:46">Binding </text>
			<line x1="656.25" y1="450" x2="656.25" y2="442" style="fill:none;stroke:#000000;stroke-width:3;stroke-linecap:round" />
			<line x1="656.25" y1="0" x2="656.25" y2="8" style="fill:none;stroke:#000000;stroke-width:3;stroke-linecap:round" />
			<text x="-308.2" y="23" transform="translate(796.875,454) rotate(-75)" style="fill:#000000;font-family:ArialNarrow-Bold;font-size:46">Catalytic activity </text>
			<line x1="750" y1="450" x2="750" y2="442" style="fill:none;stroke:#000000;stroke-width:3;stroke-linecap:round" />
			<line x1="750" y1="0" x2="750" y2="8" style="fill:none;stroke:#000000;stroke-width:3;stroke-linecap:round" />
			<text x="-521.87" y="23" transform="translate(890.625,454) rotate(-75)" style="fill:#000000;font-family:ArialNarrow-Bold;font-size:46">Molecular function unknown </text>
			<line x1="843.75" y1="450" x2="843.75" y2="442" style="fill:none;stroke:#000000;stroke-width:3;stroke-linecap:round" />
			<line x1="843.75" y1="0" x2="843.75" y2="8" style="fill:none;stroke:#000000;stroke-width:3;stroke-linecap:round" />
			<text x="-255.714" y="23" transform="translate(984.375,454) rotate(-75)" style="fill:#000000;font-family:ArialNarrow-Bold;font-size:46">Motor activity </text>
			<line x1="937.5" y1="450" x2="937.5" y2="442" style="fill:none;stroke:#000000;stroke-width:3;stroke-linecap:round" />
			<line x1="937.5" y1="0" x2="937.5" y2="8" style="fill:none;stroke:#000000;stroke-width:3;stroke-linecap:round" />
			<text x="-503.148" y="23" transform="translate(1078.125,454) rotate(-75)" style="fill:#000000;font-family:ArialNarrow-Bold;font-size:46">Structural molecule activity </text>
			<line x1="1031.25" y1="450" x2="1031.25" y2="442" style="fill:none;stroke:#000000;stroke-width:3;stroke-linecap:round" />
			<line x1="1031.25" y1="0" x2="1031.25" y2="8" style="fill:none;stroke:#000000;stroke-width:3;stroke-linecap:round" />
			<text x="-362.664" y="23" transform="translate(1171.875,454) rotate(-75)" style="fill:#000000;font-family:ArialNarrow-Bold;font-size:46">Transporter activity </text>
			<line x1="1125" y1="450" x2="1125" y2="442" style="fill:none;stroke:#000000;stroke-width:3;stroke-linecap:round" />
			<line x1="1125" y1="0" x2="1125" y2="8" style="fill:none;stroke:#000000;stroke-width:3;stroke-linecap:round" />
			<text x="-304.014" y="23" transform="translate(1265.625,454) rotate(-75)" style="fill:#000000;font-family:ArialNarrow-Bold;font-size:46">Cellular process </text>
			<line x1="1218.75" y1="450" x2="1218.75" y2="442" style="fill:none;stroke:#000000;stroke-width:3;stroke-linecap:round" />
			<line x1="1218.75" y1="0" x2="1218.75" y2="8" style="fill:none;stroke:#000000;stroke-width:3;stroke-linecap:round" />
			<text x="-408.848" y="23" transform="translate(1359.375,454) rotate(-75)" style="fill:#000000;font-family:ArialNarrow-Bold;font-size:46">Physiological process </text>
			<line x1="1312.5" y1="450" x2="1312.5" y2="442" style="fill:none;stroke:#000000;stroke-width:3;stroke-linecap:round" />
			<line x1="1312.5" y1="0" x2="1312.5" y2="8" style="fill:none;stroke:#000000;stroke-width:3;stroke-linecap:round" />
			<text x="-402.454" y="23" transform="translate(1453.125,454) rotate(-75)" style="fill:#000000;font-family:ArialNarrow-Bold;font-size:46">Response to stimulus </text>
			<line x1="1406.25" y1="450" x2="1406.25" y2="442" style="fill:none;stroke:#000000;stroke-width:3;stroke-linecap:round" />
			<line x1="1406.25" y1="0" x2="1406.25" y2="8" style="fill:none;stroke:#000000;stroke-width:3;stroke-linecap:round" />
			<line x1="34.203694" y1="543.945234" x2="-84.874144" y2="988.349737" style="fill:none;stroke:#000000;stroke-width:3;stroke-linecap:round" />
			<line x1="444.901613" y1="760.598532" x2="383.875856" y2="988.349737" style="fill:none;stroke:#000000;stroke-width:3;stroke-linecap:round" />
			<line x1="-84.874144" y1="988.349737" x2="383.875856" y2="988.349737" style="fill:none;stroke:#000000;stroke-width:3;stroke-linecap:round" />
			<text x="2.76085599999999" y="1036.349737" style="fill:#000000;font-family:ArialNarrow-Bold;font-size:46">Cellular location</text>
			<line x1="524.555291" y1="813.206716" x2="477.625856" y2="988.349737" style="fill:none;stroke:#000000;stroke-width:3;stroke-linecap:round" />
			<line x1="1085.959969" y1="817.294514" x2="1040.125856" y2="988.349737" style="fill:none;stroke:#000000;stroke-width:3;stroke-linecap:round" />
			<line x1="477.625856" y1="988.349737" x2="1040.125856" y2="988.349737" style="fill:none;stroke:#000000;stroke-width:3;stroke-linecap:round" />
			<text x="591.205856" y="1036.349737" style="fill:#000000;font-family:ArialNarrow-Bold;font-size:46">Molecular function</text>
			<line x1="1194.889707" y1="760.642965" x2="1133.875856" y2="988.349737" style="fill:none;stroke:#000000;stroke-width:3;stroke-linecap:round" />
			<line x1="1356.911558" y1="855.728703" x2="1321.375856" y2="988.349737" style="fill:none;stroke:#000000;stroke-width:3;stroke-linecap:round" />
			<line x1="1133.875856" y1="988.349737" x2="1321.375856" y2="988.349737" style="fill:none;stroke:#000000;stroke-width:3;stroke-linecap:round" />
			<text x="1059.909856" y="1036.349737" style="fill:#000000;font-family:ArialNarrow-Bold;font-size:46">Biological process</text>
			<rect width="1500" height="450" style="fill:none;stroke:black;stroke-width:3" x="0" y="0" />
		</g>
		<text x="-154.054" y="0" transform="translate(51.2,304.2) rotate(-90)" style="fill:#000000;font-family:ArialNarrow-Bold;font-size:46">Number of genes</text>
		<text x="859.152" y="1146.00831098903" style="fill:#000000;font-family:ArialNarrow-Bold;font-size:46"></text>
		<text x="601.299" y="56" style="fill:#000000;font-family:ArialNarrow-Bold;font-size:46">Gene Differential Expression</text>
	</g>
</svg>
